<svg version="1.2" xmlns="http://www.w3.org/2000/svg" viewBox="0 0 24 24" width="24" height="24">
	<title>image</title>
	<defs>
		<clipPath clipPathUnits="userSpaceOnUse" id="cp1">
			<path d="m0 0h24v24h-24z"/>
		</clipPath>
	</defs>
	<style>
		.s0 { fill: #374957 } 
	</style>
	<g id="Clip-Path" clip-path="url(#cp1)">
		<g>
			<path fill-rule="evenodd" class="s0" d="m24 24h-12c-2.3 0-4.6-0.7-6.6-2-1.9-1.3-3.5-3.1-4.4-5.2-0.9-2.2-1.2-4.6-0.8-6.9 0.4-2.3 1.5-4.4 3.1-6.1 1.6-1.7 3.6-2.9 5.9-3.5 2.3-0.5 4.7-0.4 6.9 0.4 2.2 0.8 4.1 2.2 5.5 4.1 1.4 1.9 2.3 4.1 2.4 6.4zm-12-22c-2.6 0-5.2 1.1-7.1 3-1.8 1.9-2.9 4.4-2.9 7 0 2.7 1.1 5.2 2.9 7.1 1.9 1.9 4.5 2.9 7.1 2.9h10v-10.6c-0.2-2.5-1.3-4.9-3.2-6.7-1.8-1.7-4.2-2.7-6.8-2.7z"/>
			<path class="s0" d="m13 7h-6v2h6z"/>
			<path class="s0" d="m17 11h-10v2h10z"/>
			<path class="s0" d="m17 15h-10v2h10z"/>
		</g>
	</g>
</svg>