<svg version="1.2" xmlns="http://www.w3.org/2000/svg" viewBox="0 0 24 24" width="24" height="24">
	<title>image</title>
	<defs>
		<clipPath clipPathUnits="userSpaceOnUse" id="cp1">
			<path d="m0 0h24v24h-24z"/>
		</clipPath>
	</defs>
	<style>
		.s0 { fill: #374957 } 
	</style>
	<g id="Clip-Path" clip-path="url(#cp1)">
		<g>
			<path fill-rule="evenodd" class="s0" d="m9 12c-1.2 0-2.3-0.4-3.3-1-1-0.7-1.8-1.6-2.2-2.7-0.5-1.1-0.6-2.3-0.4-3.5 0.2-1.1 0.8-2.2 1.7-3 0.8-0.9 1.9-1.5 3-1.7 1.2-0.2 2.4-0.1 3.5 0.4 1.1 0.4 2 1.2 2.7 2.2 0.6 1 1 2.1 1 3.3 0 1.6-0.6 3.1-1.8 4.2-1.1 1.2-2.6 1.8-4.2 1.8zm0-10c-0.8 0-1.6 0.2-2.2 0.7-0.7 0.4-1.2 1-1.5 1.8-0.3 0.7-0.4 1.5-0.2 2.3 0.1 0.8 0.5 1.5 1.1 2 0.5 0.6 1.2 1 2 1.1 0.8 0.2 1.6 0.1 2.3-0.2 0.8-0.3 1.4-0.8 1.8-1.5 0.5-0.6 0.7-1.4 0.7-2.2 0-1.1-0.4-2.1-1.2-2.8-0.7-0.8-1.7-1.2-2.8-1.2z"/>
			<path class="s0" d="m18 24h-2v-5c0-0.8-0.3-1.6-0.9-2.1-0.5-0.6-1.3-0.9-2.1-0.9h-8c-0.8 0-1.6 0.3-2.1 0.9-0.6 0.5-0.9 1.3-0.9 2.1v5h-2v-5c0-1.4 0.5-2.6 1.5-3.5 0.9-1 2.1-1.5 3.5-1.5h8c1.4 0 2.6 0.5 3.5 1.5 1 0.9 1.5 2.1 1.5 3.5z"/>
			<path class="s0" d="m22 7.9c-0.6 0-1.1 0.2-1.5 0.7-0.3 0.4-0.5 0.9-0.5 1.5 0-0.6-0.2-1.1-0.5-1.5-0.4-0.5-0.9-0.7-1.5-0.7-0.6 0-1.1 0.2-1.5 0.7-0.3 0.4-0.5 0.9-0.5 1.5 0 2.3 4 5.1 4 5.1 0 0 4-2.8 4-5.1 0-0.6-0.2-1.1-0.5-1.5-0.4-0.5-0.9-0.7-1.5-0.7z"/>
		</g>
	</g>
</svg>